<svg width="21" height="20" viewBox="0 0 21 20" fill="none" xmlns="http://www.w3.org/2000/svg">
<path d="M3.86758 15.1C4.71758 14.45 5.66758 13.9375 6.71758 13.5625C7.76758 13.1875 8.86758 13 10.0176 13C11.1676 13 12.2676 13.1875 13.3176 13.5625C14.3676 13.9375 15.3176 14.45 16.1676 15.1C16.7509 14.4167 17.2051 13.6417 17.5301 12.775C17.8551 11.9083 18.0176 10.9833 18.0176 10C18.0176 7.78333 17.2384 5.89583 15.6801 4.3375C14.1217 2.77917 12.2342 2 10.0176 2C7.80091 2 5.91341 2.77917 4.35508 4.3375C2.79674 5.89583 2.01758 7.78333 2.01758 10C2.01758 10.9833 2.18008 11.9083 2.50508 12.775C2.83008 13.6417 3.28425 14.4167 3.86758 15.1ZM10.0176 11C9.03424 11 8.20508 10.6625 7.53008 9.9875C6.85508 9.3125 6.51758 8.48333 6.51758 7.5C6.51758 6.51667 6.85508 5.6875 7.53008 5.0125C8.20508 4.3375 9.03424 4 10.0176 4C11.0009 4 11.8301 4.3375 12.5051 5.0125C13.1801 5.6875 13.5176 6.51667 13.5176 7.5C13.5176 8.48333 13.1801 9.3125 12.5051 9.9875C11.8301 10.6625 11.0009 11 10.0176 11ZM10.0176 20C8.63424 20 7.33424 19.7375 6.11758 19.2125C4.90091 18.6875 3.84258 17.975 2.94258 17.075C2.04258 16.175 1.33008 15.1167 0.805078 13.9C0.280078 12.6833 0.0175781 11.3833 0.0175781 10C0.0175781 8.61667 0.280078 7.31667 0.805078 6.1C1.33008 4.88333 2.04258 3.825 2.94258 2.925C3.84258 2.025 4.90091 1.3125 6.11758 0.7875C7.33424 0.2625 8.63424 0 10.0176 0C11.4009 0 12.7009 0.2625 13.9176 0.7875C15.1342 1.3125 16.1926 2.025 17.0926 2.925C17.9926 3.825 18.7051 4.88333 19.2301 6.1C19.7551 7.31667 20.0176 8.61667 20.0176 10C20.0176 11.3833 19.7551 12.6833 19.2301 13.9C18.7051 15.1167 17.9926 16.175 17.0926 17.075C16.1926 17.975 15.1342 18.6875 13.9176 19.2125C12.7009 19.7375 11.4009 20 10.0176 20ZM10.0176 18C10.9009 18 11.7342 17.8708 12.5176 17.6125C13.3009 17.3542 14.0176 16.9833 14.6676 16.5C14.0176 16.0167 13.3009 15.6458 12.5176 15.3875C11.7342 15.1292 10.9009 15 10.0176 15C9.13424 15 8.30091 15.1292 7.51758 15.3875C6.73424 15.6458 6.01758 16.0167 5.36758 16.5C6.01758 16.9833 6.73424 17.3542 7.51758 17.6125C8.30091 17.8708 9.13424 18 10.0176 18ZM10.0176 9C10.4509 9 10.8092 8.85833 11.0926 8.575C11.3759 8.29167 11.5176 7.93333 11.5176 7.5C11.5176 7.06667 11.3759 6.70833 11.0926 6.425C10.8092 6.14167 10.4509 6 10.0176 6C9.58424 6 9.22591 6.14167 8.94258 6.425C8.65924 6.70833 8.51758 7.06667 8.51758 7.5C8.51758 7.93333 8.65924 8.29167 8.94258 8.575C9.22591 8.85833 9.58424 9 10.0176 9Z" fill="#1C1B1F"/>
</svg>
