<svg width="97" height="96" viewBox="0 0 97 96" fill="none" xmlns="http://www.w3.org/2000/svg">
    <rect x="3.24609" y="48" width="64" height="64" rx="8" transform="rotate(-45 3.24609 48)" fill="#FFC700"/>
    <path d="M38.3016 64C37.1349 64 36.1433 63.5916 35.3268 62.7748C34.51 61.9583 34.1016 60.9667 34.1016 59.8V54.4H38.9016V32H62.9016V59.8C62.9016 60.9667 62.4933 61.9583 61.6768 62.7748C60.86 63.5916 59.8682 64 58.7016 64H38.3016ZM58.698 61.6C59.207 61.6 59.6349 61.4275 59.9816 61.0824C60.3282 60.7373 60.5016 60.3099 60.5016 59.8V34.4H41.3016V54.4H56.9016V59.8C56.9016 60.3099 57.0737 60.7373 57.418 61.0824C57.7622 61.4275 58.1889 61.6 58.698 61.6ZM43.7016 41.6V39.2H58.1016V41.6H43.7016ZM43.7016 46.4V44H58.1016V46.4H43.7016Z" fill="#1A1A1A"/>
</svg>