<svg width="106" height="32" viewBox="0 0 106 32" fill="none" xmlns="http://www.w3.org/2000/svg">
<rect x="0.628906" y="0.253649" width="104.228" height="31.5" rx="3.75" stroke="#1A1A1A" stroke-width="0.5"/>
<path d="M22.9788 15.7891C22.9878 15.0792 23.1766 14.3831 23.5275 13.7659C23.8784 13.1487 24.38 12.6305 24.9855 12.2597C24.6006 11.7107 24.093 11.2589 23.5029 10.9404C22.9129 10.622 22.2567 10.4455 21.5865 10.4251C20.1565 10.2758 18.7705 11.2791 18.0421 11.2791C17.2996 11.2791 16.1776 10.44 14.97 10.4651C14.189 10.4904 13.4279 10.7172 12.7604 11.1235C12.093 11.5297 11.542 12.1017 11.1608 12.7838C9.51399 15.6304 10.7428 19.8136 12.3198 22.1141C13.1094 23.2409 14.0318 24.4996 15.2387 24.4556C16.4196 24.4061 16.8604 23.7029 18.2865 23.7029C19.6984 23.7029 20.1125 24.4548 21.3437 24.4265C22.6111 24.4061 23.4101 23.2951 24.1715 22.1574C24.7383 21.3547 25.1746 20.4674 25.464 19.5284C24.7286 19.2175 24.1008 18.6971 23.6589 18.0321C23.217 17.3671 22.9805 16.5868 22.9788 15.7884V15.7891ZM20.6523 8.91179C21.3433 8.08404 21.6838 7.01925 21.6014 5.94415C20.5461 6.05472 19.5711 6.55851 18.8703 7.35529C18.528 7.74416 18.2657 8.19672 18.0985 8.68708C17.9313 9.17743 17.8625 9.69595 17.896 10.2129C18.4239 10.2183 18.9461 10.104 19.4235 9.87867C19.9008 9.65332 20.3209 9.32275 20.6523 8.91179ZM37.9026 21.6058H33.8719L32.9047 24.4587H31.1974L35.0151 13.9026H36.7885L40.6063 24.4587H38.8699L37.9026 21.6058ZM34.2899 20.2889H37.4846L35.9093 15.6587H35.8653L34.2899 20.2889ZM48.8516 20.6095C48.8516 23.0012 47.5693 24.5381 45.6341 24.5381C45.1442 24.5635 44.657 24.4508 44.2281 24.2127C43.7993 23.9745 43.446 23.6206 43.2086 23.1914H43.1724V27.0036H41.59V16.7611H43.1221V18.041H43.1504C43.3983 17.6134 43.7574 17.261 44.1897 17.0214C44.6219 16.7818 45.111 16.6638 45.605 16.6801C47.5614 16.6801 48.8516 18.2249 48.8516 20.6095ZM47.2251 20.6095C47.2251 19.0514 46.4182 18.0269 45.1878 18.0269C43.9786 18.0269 43.1654 19.0726 43.1654 20.6095C43.1654 22.1605 43.9786 23.1984 45.1878 23.1984C46.4182 23.1984 47.2251 22.1817 47.2251 20.6095ZM57.3302 20.6095C57.3302 23.0012 56.0479 24.5381 54.1127 24.5381C53.6228 24.5635 53.1356 24.4508 52.7068 24.2127C52.2779 23.9745 51.9246 23.6206 51.6872 23.1914H51.6511V27.0029H50.0686V16.7611H51.6008V18.041H51.6291C51.8768 17.6134 52.236 17.2609 52.6682 17.0213C53.1005 16.7816 53.5897 16.6637 54.0836 16.6801C56.0401 16.6801 57.3302 18.2249 57.3302 20.6095ZM55.7038 20.6095C55.7038 19.0514 54.8969 18.0269 53.6664 18.0269C52.4572 18.0269 51.644 19.0726 51.644 20.6095C51.644 22.1605 52.4572 23.1984 53.6664 23.1984C54.8969 23.1984 55.7038 22.1817 55.7038 20.6095ZM62.9386 21.5154C63.0557 22.5628 64.074 23.2495 65.4663 23.2495C66.7996 23.2495 67.7598 22.5628 67.7598 21.6184C67.7598 20.7996 67.1807 20.3086 65.8104 19.9723L64.4401 19.6423C62.4986 19.1748 61.5974 18.2681 61.5974 16.7972C61.5974 14.9759 63.1869 13.7251 65.4443 13.7251C67.6789 13.7251 69.2102 14.9759 69.2621 16.7972H67.6639C67.5681 15.7444 66.6959 15.1079 65.4215 15.1079C64.1463 15.1079 63.2741 15.7514 63.2741 16.6872C63.2741 17.4336 63.832 17.8736 65.1944 18.2091L66.3596 18.4951C68.5282 19.0066 69.4302 19.8772 69.4302 21.4211C69.4302 23.3964 67.8541 24.6331 65.3484 24.6331C63.0031 24.6331 61.4199 23.4247 61.3177 21.5154H62.9386ZM72.8488 14.9398V16.7619H74.3142V18.0127H72.8496V22.2556C72.8496 22.9148 73.1427 23.222 73.787 23.222C73.9614 23.2189 74.1351 23.2063 74.3079 23.1851V24.4289C74.018 24.4831 73.7234 24.5074 73.4287 24.5019C71.8683 24.5019 71.2601 23.9166 71.2601 22.4237V18.0127H70.1389V16.7619H71.2594V14.9398H72.8488ZM75.1636 20.6095C75.1636 18.1879 76.592 16.6668 78.8195 16.6668C81.0549 16.6668 82.477 18.1879 82.477 20.6095C82.477 23.0374 81.0627 24.553 78.8195 24.553C76.5779 24.553 75.1636 23.0381 75.1636 20.6095ZM80.8647 20.6095C80.8647 18.9485 80.1026 17.9679 78.8195 17.9679C77.538 17.9679 76.7766 18.9564 76.7766 20.6095C76.7766 22.2776 77.538 23.2503 78.8195 23.2503C80.1018 23.2503 80.8647 22.2776 80.8647 20.6103V20.6095ZM83.7805 16.7611H85.2891V18.0709H85.326C85.428 17.6611 85.6681 17.2991 86.0058 17.0458C86.3436 16.7924 86.7584 16.6633 87.1803 16.6801C87.3626 16.6801 87.5448 16.699 87.7224 16.7391V18.2162C87.4923 18.1464 87.2524 18.1146 87.0121 18.1219C86.666 18.1079 86.3248 18.2069 86.0399 18.4039C85.755 18.6009 85.5419 18.8853 85.4329 19.2141C85.3605 19.4323 85.3364 19.6637 85.3621 19.8921V24.4571H83.7805V16.7611ZM95.0193 22.1974C94.8064 23.5944 93.4432 24.553 91.6997 24.553C89.4573 24.553 88.065 23.0523 88.065 20.6464C88.065 18.2319 89.4644 16.6668 91.6329 16.6668C93.7661 16.6668 95.1074 18.129 95.1074 20.4626V21.0047H89.6624V21.099C89.6366 21.3825 89.6718 21.6683 89.7658 21.937C89.8597 22.2058 90.0101 22.4513 90.2068 22.6571C90.4028 22.8636 90.6405 23.026 90.9042 23.1333C91.1678 23.2406 91.4514 23.2904 91.7358 23.2794C92.1096 23.3141 92.4845 23.2276 92.8052 23.0326C93.1259 22.8376 93.3752 22.5445 93.5163 22.1966L95.0193 22.1974ZM89.6702 19.9H93.5241C93.5388 19.6452 93.5003 19.3902 93.4112 19.151C93.3221 18.9119 93.1842 18.6939 93.0064 18.5109C92.8286 18.3273 92.6149 18.1824 92.3786 18.0853C92.1422 17.9882 91.8884 17.9411 91.6329 17.9467C91.3755 17.9448 91.1202 17.994 90.8818 18.0914C90.6434 18.1888 90.4268 18.3325 90.2442 18.5141C90.0617 18.6957 89.917 18.9117 89.8185 19.1496C89.72 19.3875 89.6696 19.6425 89.6702 19.9ZM32.1936 5.35093V9.36043H33.5631C34.7504 9.36043 35.4481 8.61872 35.4481 7.35451C35.4481 6.09265 34.748 5.35093 33.5631 5.35093H32.1936ZM32.6918 5.80115H33.5301C34.4156 5.80115 34.9389 6.37865 34.9389 7.36001C34.9389 8.33822 34.4211 8.91022 33.5301 8.91022H32.6918V5.80115ZM36.2613 9.36043H36.7374V6.36529H36.2621L36.2613 9.36043ZM36.4994 5.78701C36.5838 5.78121 36.6628 5.74359 36.7205 5.68175C36.7783 5.61991 36.8104 5.53846 36.8104 5.45386C36.8104 5.36926 36.7783 5.28782 36.7205 5.22598C36.6628 5.16414 36.5838 5.12652 36.4994 5.12072C36.415 5.12652 36.3359 5.16414 36.2782 5.22598C36.2204 5.28782 36.1883 5.36926 36.1883 5.45386C36.1883 5.53846 36.2204 5.61991 36.2782 5.68175C36.3359 5.74359 36.415 5.78121 36.4994 5.78701ZM37.5766 7.18479C37.5766 7.61851 37.8311 7.86051 38.3898 7.99643L38.9021 8.12136C39.2203 8.19915 39.3751 8.33822 39.3751 8.54329C39.3751 8.81829 39.0875 9.01001 38.686 9.01001C38.3041 9.01001 38.0661 8.84893 37.9859 8.59593H37.4956C37.5483 9.09329 38.0056 9.41308 38.6695 9.41308C39.3476 9.41308 39.8654 9.04379 39.8654 8.50715C39.8654 8.07658 39.5935 7.83222 39.0325 7.69629L38.5729 7.58472C38.2209 7.49829 38.0551 7.37101 38.0551 7.16515C38.0551 6.89801 38.3316 6.71729 38.686 6.71729C39.0459 6.71729 39.2784 6.87679 39.3421 7.11565H39.8127C39.7491 6.62379 39.3146 6.31265 38.6891 6.31265C38.0551 6.31265 37.5766 6.68743 37.5766 7.18479ZM42.0654 6.31265C41.6584 6.31265 41.3016 6.52086 41.1107 6.86501H41.0659V6.36529H40.6126V10.3606H41.0879V8.91022H41.1327C41.2961 9.22686 41.6387 9.41308 42.0654 9.41308C42.8236 9.41308 43.3194 8.79943 43.3194 7.86286C43.3194 6.92079 42.8267 6.31265 42.0654 6.31265ZM41.9514 8.98251C41.4148 8.98251 41.0746 8.54879 41.0746 7.86286C41.0746 7.17379 41.4148 6.74322 41.9546 6.74322C42.4999 6.74322 42.8267 7.16279 42.8267 7.86286C42.8267 8.56293 42.4999 8.98251 41.9514 8.98251ZM45.2923 9.41308C46.1416 9.41308 46.6673 8.82379 46.6673 7.86286C46.6673 6.89879 46.1416 6.31265 45.2923 6.31265C44.4421 6.31265 43.9173 6.89879 43.9173 7.86286C43.9173 8.82379 44.4421 9.41308 45.2923 9.41308ZM45.2923 8.98251C44.7274 8.98251 44.4091 8.57158 44.4091 7.86286C44.4091 7.15179 44.7274 6.74322 45.2923 6.74322C45.8564 6.74322 46.1746 7.15179 46.1746 7.86286C46.1746 8.57158 45.8572 8.98251 45.2923 8.98251ZM47.4145 9.36043H47.8906V7.58786C47.8906 7.06222 48.1979 6.74322 48.674 6.74322C49.1501 6.74322 49.3772 6.99858 49.3772 7.53758V9.36043H49.8534V7.42129C49.8534 6.70943 49.4794 6.31265 48.8099 6.31265C48.3534 6.31265 48.0627 6.50672 47.9134 6.83751H47.8686V6.36529H47.4145V9.36043ZM50.7357 9.36043H51.2119V6.36529H50.7357V9.36043ZM51.1898 5.94808L51.8294 5.00365H51.259L50.7695 5.94808H51.1898ZM54.5551 6.36529H54.0459L53.2296 8.83243H53.1856L52.3684 6.36529H51.8593L52.964 9.36043H53.4511L54.5551 6.36529ZM56.2711 6.73458C56.7441 6.73458 57.0599 7.08501 57.0709 7.61536H55.4272C55.4634 7.08501 55.7949 6.73458 56.2711 6.73458ZM57.0568 8.58493C56.9326 8.84893 56.6718 8.99115 56.2876 8.99115C55.7808 8.99115 55.4516 8.61558 55.4272 8.02393V8.00193H57.5722V7.81808C57.5722 6.88779 57.0819 6.31265 56.2766 6.31265C55.4571 6.31265 54.9314 6.92393 54.9314 7.86522C54.9314 8.81279 55.4492 9.41308 56.2766 9.41308C56.9295 9.41308 57.3946 9.09643 57.5337 8.58493H57.0568ZM58.3469 9.36043H58.8231V5.17572H58.3469V9.36043ZM61.3468 9.36043H61.8229V7.58786C61.8229 7.06222 62.1294 6.74322 62.6063 6.74322C63.0824 6.74322 63.3087 6.99858 63.3087 7.53758V9.36043H63.7849V7.42129C63.7849 6.70943 63.4116 6.31265 62.7414 6.31265C62.2849 6.31265 61.995 6.50672 61.8449 6.83751H61.8009V6.36529H61.3468V9.36043ZM65.5755 8.99351C65.2298 8.99351 64.9721 8.81593 64.9721 8.51029C64.9721 8.21015 65.1716 8.05143 65.6258 8.02079L66.428 7.96815V8.24315C66.428 8.67136 66.065 8.99351 65.5755 8.99351ZM65.4867 9.41308C65.8859 9.41308 66.2119 9.23786 66.406 8.91808H66.45V9.36043H66.9041V7.30972C66.9041 6.68743 66.4971 6.31186 65.7696 6.31186C65.1331 6.31186 64.6617 6.62929 64.5988 7.11015H65.0805C65.1465 6.87365 65.3956 6.73772 65.7531 6.73772C66.1986 6.73772 66.428 6.94043 66.428 7.30972V7.58236L65.5668 7.63501C64.8723 7.67665 64.4794 7.98543 64.4794 8.52129C64.4794 9.06893 64.9084 9.41308 65.4867 9.41308Z" fill="#1A1A1A"/>
</svg>
