<svg width="97" height="96" viewBox="0 0 97 96" fill="none" xmlns="http://www.w3.org/2000/svg">
<rect x="3.24512" y="48" width="64" height="64" rx="8" transform="rotate(-45 3.24512 48)" fill="#FFC700"/>
<path d="M39.6999 64C39.2465 64 38.8665 63.8467 38.5599 63.54C38.2532 63.2333 38.0999 62.8533 38.0999 62.4V36.8C38.0999 36.3467 38.2532 35.9667 38.5599 35.66C38.8665 35.3533 39.2465 35.2 39.6999 35.2H42.8999V32H49.2999V35.2H52.4999C52.9532 35.2 53.3332 35.3533 53.6399 35.66C53.9465 35.9667 54.0999 36.3467 54.0999 36.8V48C51.4332 48.0267 49.1665 48.9667 47.2999 50.82C45.4332 52.6733 44.4999 54.9333 44.4999 57.6C44.4999 58.8267 44.7132 59.9867 45.1399 61.08C45.5665 62.1733 46.1665 63.1467 46.9399 64H39.6999ZM41.2999 41.6H50.8999V38.4H41.2999V41.6ZM53.2999 64V59.2H49.2999L54.8999 51.2V56H58.8999L53.2999 64Z" fill="#1C1B1F"/>
</svg>
