<svg width="97" height="96" viewBox="0 0 97 96" fill="none" xmlns="http://www.w3.org/2000/svg">
<rect x="3.24512" y="48" width="64" height="64" rx="8" transform="rotate(-45 3.24512 48)" fill="#FFC700"/>
<path d="M32.5 64V34.4C32.5 33.76 32.74 33.2 33.22 32.72C33.7 32.24 34.26 32 34.9 32H62.1C62.74 32 63.3 32.24 63.78 32.72C64.26 33.2 64.5 33.76 64.5 34.4V55.2C64.5 55.84 64.26 56.4 63.78 56.88C63.3 57.36 62.74 57.6 62.1 57.6H38.9L32.5 64ZM41.54 46.28C41.9933 46.28 42.3733 46.1267 42.68 45.82C42.9867 45.5133 43.14 45.1333 43.14 44.68C43.14 44.2267 42.9867 43.8467 42.68 43.54C42.3733 43.2333 41.9933 43.08 41.54 43.08C41.0867 43.08 40.7067 43.2333 40.4 43.54C40.0933 43.8467 39.94 44.2267 39.94 44.68C39.94 45.1333 40.0933 45.5133 40.4 45.82C40.7067 46.1267 41.0867 46.28 41.54 46.28ZM48.62 46.28C49.0733 46.28 49.4533 46.1267 49.76 45.82C50.0667 45.5133 50.22 45.1333 50.22 44.68C50.22 44.2267 50.0667 43.8467 49.76 43.54C49.4533 43.2333 49.0733 43.08 48.62 43.08C48.1667 43.08 47.7867 43.2333 47.48 43.54C47.1733 43.8467 47.02 44.2267 47.02 44.68C47.02 45.1333 47.1733 45.5133 47.48 45.82C47.7867 46.1267 48.1667 46.28 48.62 46.28ZM55.42 46.28C55.8733 46.28 56.2533 46.1267 56.56 45.82C56.8667 45.5133 57.02 45.1333 57.02 44.68C57.02 44.2267 56.8667 43.8467 56.56 43.54C56.2533 43.2333 55.8733 43.08 55.42 43.08C54.9667 43.08 54.5867 43.2333 54.28 43.54C53.9733 43.8467 53.82 44.2267 53.82 44.68C53.82 45.1333 53.9733 45.5133 54.28 45.82C54.5867 46.1267 54.9667 46.28 55.42 46.28Z" fill="#1C1B1F"/>
</svg>
