<svg width="33" height="32" viewBox="0 0 33 32" fill="none" xmlns="http://www.w3.org/2000/svg">
<g clip-path="url(#clip0_2599_6036)">
<rect x="0.378906" y="0.00390625" width="32" height="31.8056" rx="15.9028" fill="white"/>
<path d="M32.3789 16.0039C32.3789 7.16716 25.2156 0.00390625 16.3789 0.00390625C7.54217 0.00390625 0.378906 7.16716 0.378906 16.0039C0.378906 23.9897 6.22898 30.6101 13.8782 31.8095V20.6285H9.81535V16.0039H13.8782V12.4792C13.8782 8.4685 16.2675 6.25457 19.9226 6.25457C21.6743 6.25457 23.5042 6.56746 23.5042 6.56746V10.5046H21.4871C19.5007 10.5046 18.8796 11.7372 18.8796 13.003V16.0039H23.317L22.6082 20.6285H18.8796V31.8095C26.5288 30.6101 32.3789 23.9897 32.3789 16.0039Z" fill="#1A1A1A"/>
</g>
<defs>
<clipPath id="clip0_2599_6036">
<rect x="0.378906" y="0.00390625" width="32" height="31.8056" rx="15.9028" fill="white"/>
</clipPath>
</defs>
</svg>
