<svg width="113" height="32" viewBox="0 0 113 32" fill="none" xmlns="http://www.w3.org/2000/svg">
<rect x="0.357422" y="0.253649" width="112.394" height="31.5" rx="3.75" stroke="#1A1A1A" stroke-width="0.5"/>
<path d="M36.3229 6.18383V10.144H37.6917C38.8782 10.144 39.5743 9.41166 39.5743 8.16233C39.5743 6.91615 38.875 6.18383 37.6917 6.18383H36.3229ZM36.8203 6.62856H37.6579C38.5434 6.62856 39.0652 7.19901 39.0652 8.16862C39.0652 9.1343 38.5489 9.70003 37.6587 9.70003H36.8203V6.62778V6.62856ZM40.9345 10.1448V6.18383H40.4371V10.144H40.9345V10.1448ZM41.7611 9.10994C41.8137 9.79353 42.3975 10.2375 43.243 10.2375C44.1552 10.2375 44.7335 9.77389 44.7335 9.04629C44.7335 8.46484 44.4019 8.14583 43.5745 7.93997L43.1581 7.82996C42.6073 7.6901 42.3881 7.51174 42.3881 7.20137C42.3881 6.80064 42.7401 6.53742 43.2705 6.53742C43.7686 6.53742 44.1057 6.77943 44.1749 7.18566H44.6754C44.6337 6.54606 44.0586 6.09033 43.287 6.09033C42.4439 6.09033 41.8773 6.54606 41.8773 7.21866C41.8773 7.78125 42.1901 8.10497 42.9114 8.28648L43.4221 8.4177C43.9729 8.5552 44.222 8.76893 44.222 9.1068C44.222 9.49967 43.8268 9.78725 43.2901 9.78725C42.7236 9.78725 42.3252 9.52402 42.2647 9.10994H41.7611ZM45.5625 6.18383V10.144H46.0606V8.73121H47.064C47.8128 8.73121 48.3471 8.20712 48.3471 7.46617C48.3471 6.71185 47.8246 6.18462 47.0695 6.18462H45.5625V6.18383ZM46.0606 6.62306H46.9399C47.5174 6.62306 47.8356 6.92165 47.8356 7.46538C47.8356 7.98947 47.5056 8.29198 46.9399 8.29198H46.0598V6.62228L46.0606 6.62306ZM50.8379 6.09033C49.7096 6.09033 49.0072 6.88864 49.0072 8.16233C49.0072 9.43052 49.6931 10.2375 50.8379 10.2375C51.9773 10.2375 52.6687 9.42816 52.6687 8.16312C52.6687 6.89179 51.9718 6.09033 50.8379 6.09033ZM50.8379 6.54606C51.6535 6.54606 52.1564 7.17151 52.1564 8.16233C52.1564 9.1453 51.6559 9.78175 50.8379 9.78175C50.0082 9.78175 49.5195 9.1453 49.5195 8.16312C49.5195 7.17151 50.0247 6.54606 50.8379 6.54606ZM54.0226 10.1448V7.07251H54.0673L56.2321 10.1448H56.7161V6.18383H56.2234V9.2663H56.1794L54.0147 6.18383H53.5307V10.144H54.0226V10.1448ZM58.231 10.1448V6.18383H57.7328V10.144H58.231V10.1448ZM58.2114 5.82082L58.8777 5.00365H58.2805L57.791 5.82082H58.2114ZM60.8931 10.1448L62.364 6.18383H61.8415L60.6692 9.50517H60.6252L59.4528 6.18383H58.9303L60.4012 10.144H60.8931V10.1448ZM65.536 9.70003H63.5615V8.33834H65.4331V7.89911H63.5615V6.62856H65.5353V6.18383H63.0633V10.144H65.5353L65.536 9.70003ZM68.8589 9.70003H66.9339V6.18383H66.4365V10.144H68.8589V9.70003ZM71.745 10.1448V7.07251H71.789L73.9537 10.1448H74.4377V6.18383H73.9458V9.2663H73.9018L71.7355 6.18383H71.2523V10.144H71.7442L71.745 10.1448ZM77.1305 6.09033C76.0029 6.09033 75.3005 6.88864 75.3005 8.16233C75.3005 9.43052 75.9864 10.2375 77.1312 10.2375C78.2698 10.2375 78.9612 9.42816 78.9612 8.16312C78.9612 6.89179 78.2643 6.09033 77.1305 6.09033ZM77.1305 6.54606C77.9461 6.54606 78.4497 7.17151 78.4497 8.16233C78.4497 9.1453 77.9492 9.78175 77.1305 9.78175C76.3015 9.78175 75.812 9.1453 75.812 8.16312C75.812 7.17151 76.318 6.54606 77.1305 6.54606ZM56.7554 17.2094C54.8279 17.2094 53.3028 18.6544 53.3028 20.6611C53.2994 21.1155 53.3863 21.566 53.5586 21.9864C53.7309 22.4069 53.9851 22.7889 54.3064 23.1102C54.6276 23.4314 55.0096 23.6856 55.4301 23.8579C55.8505 24.0302 56.301 24.1171 56.7554 24.1137C58.682 24.1137 60.2071 22.6679 60.2071 20.6611C60.2071 18.5742 58.682 17.2094 56.7554 17.2094ZM56.7554 22.6687C55.7111 22.6687 54.8279 21.7855 54.8279 20.581C54.8279 19.3772 55.7111 18.4941 56.7554 18.4941C57.7988 18.4941 58.682 19.2963 58.682 20.581C58.682 21.7855 57.7996 22.6687 56.7554 22.6687ZM49.2877 17.2094C47.361 17.2094 45.8359 18.6544 45.8359 20.6611C45.8325 21.1155 45.9194 21.566 46.0917 21.9864C46.264 22.4069 46.5182 22.7889 46.8394 23.1102C47.1607 23.4314 47.5427 23.6856 47.9632 23.8579C48.3836 24.0302 48.8341 24.1171 49.2885 24.1137C51.2151 24.1137 52.7402 22.6679 52.7402 20.6611C52.7402 18.5742 51.2151 17.2094 49.2877 17.2094ZM49.2877 22.6687C48.2442 22.6687 47.361 21.7855 47.361 20.581C47.361 19.3772 48.2442 18.4941 49.2885 18.4941C50.3319 18.4941 51.2151 19.2963 51.2151 20.581C51.2151 21.7855 50.3319 22.6687 49.2877 22.6687ZM40.3758 18.2528V19.6986H43.8283C43.7482 20.5001 43.4276 21.1428 43.0253 21.5451C42.5436 22.026 41.7406 22.5878 40.3758 22.5878C38.2079 22.5878 36.6019 20.9024 36.6019 18.7345C36.6019 16.5666 38.2881 14.8812 40.3758 14.8812C41.4994 14.8812 42.3834 15.3629 43.0253 15.9247L44.0696 14.8812C43.1864 14.0782 42.062 13.4354 40.4559 13.4354C37.566 13.4354 35.0767 15.8445 35.0767 18.7345C35.0767 21.6245 37.566 24.0328 40.4559 24.0328C42.062 24.0328 43.1864 23.5511 44.1489 22.5084C45.113 21.5443 45.4344 20.1795 45.4344 19.136C45.4344 18.8146 45.4344 18.4941 45.3543 18.2528H40.3758ZM76.8272 19.3764C76.5066 18.5742 75.7036 17.2094 73.9372 17.2094C72.1709 17.2094 70.7251 18.5742 70.7251 20.6611C70.7251 22.5878 72.1708 24.1137 74.0975 24.1137C75.6234 24.1137 76.5867 23.1504 76.9081 22.5878L75.7837 21.7855C75.383 22.3473 74.9005 22.7489 74.0975 22.7489C73.2945 22.7489 72.8128 22.4275 72.4113 21.7054L76.9882 19.778L76.8272 19.3764ZM72.1709 20.5001C72.1709 19.2162 73.2143 18.4941 73.9372 18.4941C74.499 18.4941 75.0608 18.8146 75.2219 19.2169L72.1709 20.5001ZM68.3969 23.7923H69.9228V13.7576H68.3961L68.3969 23.7923ZM65.9886 17.9315C65.5871 17.5307 64.9444 17.1292 64.1421 17.1292C62.4559 17.1292 60.8499 18.6544 60.8499 20.581C60.8499 22.5076 62.375 23.9526 64.1421 23.9526C64.9444 23.9526 65.5871 23.5519 65.9077 23.1504H65.9886V23.632C65.9886 24.9159 65.2657 25.6388 64.1421 25.6388C63.2582 25.6388 62.6162 24.9969 62.4559 24.4343L61.1712 24.9969C61.572 25.8793 62.5361 27.0036 64.2223 27.0036C65.9886 27.0036 67.4336 25.9602 67.4336 23.471V17.3697H65.9878L65.9886 17.9315ZM64.2223 22.6687C63.178 22.6687 62.2949 21.7855 62.2949 20.581C62.2949 19.3772 63.178 18.4941 64.2223 18.4941C65.2658 18.4941 66.0688 19.3764 66.0688 20.581C66.0688 21.7855 65.2658 22.6687 64.2223 22.6687ZM83.8124 13.7568H80.1996V23.7915H81.7255V20.0192H83.8124C85.4986 20.0192 87.1047 18.8146 87.1047 16.888C87.1047 14.9614 85.4986 13.7568 83.8124 13.7568ZM83.8933 18.5734H81.7247V15.1209H83.8933C85.017 15.1209 85.6589 16.0842 85.6589 16.8071C85.5788 17.6902 84.9368 18.5734 83.8933 18.5734ZM93.1266 17.1277C92.0022 17.1277 90.8778 17.6101 90.4771 18.6536L91.8419 19.2154C92.1625 18.6536 92.6442 18.4925 93.2067 18.4925C94.0098 18.4925 94.7319 18.9749 94.812 19.7772V19.8581C94.5716 19.697 93.9288 19.4566 93.2869 19.4566C91.8419 19.4566 90.3961 20.2588 90.3961 21.7038C90.3961 23.0687 91.6007 23.9518 92.8854 23.9518C93.9288 23.9518 94.4113 23.4702 94.812 22.9885H94.893V23.7915H96.3379V19.9383C96.1776 18.1719 94.812 17.1277 93.1266 17.1277ZM92.9655 22.6671C92.4839 22.6671 91.761 22.4267 91.761 21.7847C91.761 20.9817 92.6441 20.7405 93.367 20.7405C94.0098 20.7405 94.3304 20.9016 94.7319 21.0627C94.5716 22.0252 93.7685 22.6679 92.9655 22.6679V22.6671ZM101.396 17.3689L99.7103 21.7046H99.6294L97.8631 17.3689H96.2578L98.9073 23.4702L97.3814 26.8418H98.9073L103.002 17.3689H101.396ZM87.9077 23.7915H89.4328V13.7576H87.9077V23.7923V23.7915ZM10.1082 24.5953V6.85329C10.1082 6.61363 10.1279 6.39441 10.1774 6.20426C10.1954 6.13512 10.2166 6.07069 10.2434 6.01018L20.1044 15.8115L10.3164 25.4628C10.3164 25.4628 10.1082 24.9332 10.1082 24.5953ZM24.2052 12.6827L27.7725 14.7209C28.8961 15.3629 28.8961 16.4071 27.7725 17.0491L23.8909 19.1447C23.8909 19.1447 21.3341 16.5643 20.6725 15.8807L24.2052 12.6827ZM10.5836 25.9295C10.9702 26.1951 11.4801 26.1605 12.1134 25.8793L23.465 19.3489L20.3378 16.1384C19.248 17.1669 10.5828 25.9288 10.5828 25.9288L10.5836 25.9295ZM23.8398 12.3936L12.1174 5.73046C11.3945 5.32895 10.9152 5.32423 10.5129 5.72496L20.381 15.513L23.8398 12.3936Z" fill="#1A1A1A"/>
<path opacity="0.2" d="M23.7555 19.0555L12.1139 25.6384C11.4712 26.0399 10.9094 25.9598 10.5079 25.6384L10.4277 25.7185L10.5079 25.7995C10.9094 26.1201 11.4712 26.2002 12.1139 25.7995L23.7555 19.0555Z" fill="#1A1A1A"/>
<path opacity="0.2" d="M10.43 25.6382C10.1895 25.3969 10.1094 24.9962 10.1094 24.5146V24.5947C10.1094 25.0764 10.2697 25.4771 10.5101 25.7183V25.6382H10.43ZM27.7729 16.8072L23.7577 19.0544L23.8387 19.1354L27.7729 16.8881C28.3347 16.566 28.5759 16.1653 28.5759 15.7637C28.5759 16.1645 28.2545 16.4866 27.7729 16.8072Z" fill="#1A1A1A"/>
<path opacity="0.2" d="M12.1162 5.8091L27.7729 14.7202C28.2545 15.0424 28.5759 15.3629 28.5759 15.7645C28.5759 15.3629 28.3347 14.9614 27.7729 14.6408L12.1162 5.72817C10.9925 5.087 10.1094 5.56866 10.1094 6.85256V6.93349C10.1094 5.72895 10.9925 5.16636 12.1162 5.8091Z" fill="#1A1A1A"/>
</svg>
