<svg width="33" height="32" viewBox="0 0 33 32" fill="none" xmlns="http://www.w3.org/2000/svg">
<g clip-path="url(#clip0_4068_10233)">
<path d="M16.3789 32.0036C25.2155 32.0036 32.3789 24.8402 32.3789 16.0036C32.3789 7.16709 25.2155 0.00364876 16.3789 0.00364876C7.54235 0.00364876 0.378906 7.16709 0.378906 16.0036C0.378906 24.8402 7.54235 32.0036 16.3789 32.0036Z" fill="#1A1A1A"/>
<path d="M16.3792 7.74513C19.0696 7.74513 19.3872 7.75462 20.4491 7.80439C21.4304 7.84943 21.9638 8.01299 22.3193 8.15047C22.7887 8.33299 23.1253 8.55106 23.4784 8.90425C23.8316 9.25743 24.0497 9.59165 24.2322 10.0634C24.3697 10.4189 24.5333 10.9522 24.5783 11.9336C24.6257 12.9955 24.6376 13.3155 24.6376 16.0035C24.6376 18.6915 24.6281 19.0115 24.5783 20.0734C24.5333 21.0548 24.3697 21.5881 24.2322 21.9437C24.0497 22.413 23.8316 22.7496 23.4784 23.1028C23.1253 23.456 22.791 23.674 22.3193 23.8565C21.9638 23.994 21.4304 24.1576 20.4491 24.2026C19.3872 24.25 19.0696 24.2619 16.3792 24.2619C13.6888 24.2619 13.3712 24.2524 12.3093 24.2026C11.3279 24.1576 10.7946 23.994 10.439 23.8565C9.9697 23.674 9.63311 23.456 9.27992 23.1028C8.92673 22.7496 8.70866 22.4154 8.52614 21.9437C8.38866 21.5881 8.22511 21.0548 8.18007 20.0734C8.13266 19.0115 8.12081 18.6915 8.12081 16.0035C8.12081 13.3155 8.13029 12.9955 8.18007 11.9336C8.22511 10.9522 8.38866 10.4189 8.52614 10.0634C8.70866 9.59402 8.92673 9.25743 9.27992 8.90425C9.63311 8.55106 9.96733 8.33299 10.439 8.15047C10.7946 8.01299 11.3279 7.84943 12.3093 7.80439C13.3712 7.75699 13.6912 7.74513 16.3792 7.74513ZM16.3792 5.92943C13.6438 5.92943 13.3001 5.94128 12.2263 5.99106C11.1549 6.04084 10.4224 6.20913 9.78007 6.46039C9.11873 6.71876 8.55696 7.06247 7.99518 7.62187C7.43577 8.18128 7.0897 8.74306 6.8337 9.40676C6.58481 10.0468 6.41414 10.7792 6.36436 11.853C6.31459 12.9268 6.30273 13.2705 6.30273 16.0059C6.30273 18.7413 6.31459 19.085 6.36436 20.1588C6.41414 21.2302 6.58244 21.9626 6.8337 22.605C7.09207 23.2663 7.43577 23.8281 7.99518 24.3899C8.55459 24.9493 9.11636 25.2954 9.78007 25.5514C10.4201 25.8002 11.1525 25.9709 12.2263 26.0207C13.3001 26.0705 13.6438 26.0823 16.3792 26.0823C19.1146 26.0823 19.4583 26.0705 20.5321 26.0207C21.6035 25.9709 22.3359 25.8026 22.9783 25.5514C23.6396 25.293 24.2014 24.9493 24.7632 24.3899C25.3226 23.8305 25.6687 23.2687 25.9247 22.605C26.1736 21.965 26.3442 21.2325 26.394 20.1588C26.4438 19.085 26.4556 18.7413 26.4556 16.0059C26.4556 13.2705 26.4438 12.9268 26.394 11.853C26.3442 10.7816 26.1759 10.0491 25.9247 9.40676C25.6663 8.74543 25.3226 8.18365 24.7632 7.62187C24.2038 7.06247 23.642 6.71639 22.9783 6.46039C22.3383 6.2115 21.6058 6.04084 20.5321 5.99106C19.4583 5.94128 19.1146 5.92943 16.3792 5.92943Z" fill="#FAFAFA"/>
<path d="M16.3792 10.8314C13.5229 10.8314 11.207 13.1472 11.207 16.0035C11.207 18.8598 13.5229 21.1757 16.3792 21.1757C19.2355 21.1757 21.5513 18.8598 21.5513 16.0035C21.5513 13.1472 19.2355 10.8314 16.3792 10.8314ZM16.3792 19.3623C14.5256 19.3623 13.0204 17.8595 13.0204 16.0035C13.0204 14.1475 14.5232 12.6447 16.3792 12.6447C18.2352 12.6447 19.738 14.1475 19.738 16.0035C19.738 17.8595 18.2352 19.3623 16.3792 19.3623Z" fill="#FAFAFA"/>
<path d="M21.7577 11.8337C22.4254 11.8337 22.9666 11.2924 22.9666 10.6248C22.9666 9.95713 22.4254 9.41589 21.7577 9.41589C21.0901 9.41589 20.5488 9.95713 20.5488 10.6248C20.5488 11.2924 21.0901 11.8337 21.7577 11.8337Z" fill="#FAFAFA"/>
</g>
<defs>
<clipPath id="clip0_4068_10233">
<rect width="32" height="32" fill="white" transform="translate(0.378906 0.00364876)"/>
</clipPath>
</defs>
</svg>
