<svg width="33" height="32" viewBox="0 0 33 32" fill="none" xmlns="http://www.w3.org/2000/svg">
<g clip-path="url(#clip0_4068_10241)">
<path d="M16.3789 32.0036C25.2155 32.0036 32.3789 24.8402 32.3789 16.0036C32.3789 7.16709 25.2155 0.00364876 16.3789 0.00364876C7.54235 0.00364876 0.378906 7.16709 0.378906 16.0036C0.378906 24.8402 7.54235 32.0036 16.3789 32.0036Z" fill="#1A1A1A"/>
<path d="M17.6177 13.8209C17.8808 13.5246 18.0965 13.2259 18.3667 12.9723C19.1963 12.1901 20.1777 11.7966 21.3249 11.8061C21.9554 11.8108 22.5765 11.8559 23.1833 12.0313C24.5723 12.4319 25.3783 13.3895 25.7646 14.7453C26.0538 15.7622 26.106 16.8076 26.1083 17.8553C26.1131 20.0645 26.1012 22.276 26.1083 24.4852C26.1083 24.6914 26.0514 24.7459 25.8476 24.7459C24.7098 24.7365 23.5697 24.7365 22.4319 24.7459C22.2304 24.7459 22.1877 24.6867 22.1877 24.497C22.1948 22.3945 22.1948 20.292 22.1877 18.1871C22.1877 17.6609 22.1522 17.1323 22.0052 16.6203C21.7326 15.6769 21.0571 15.1957 20.0686 15.2479C18.7175 15.319 18.0159 15.9874 17.8452 17.3599C17.8049 17.687 17.7836 18.0165 17.786 18.3459C17.786 20.3916 17.786 22.4372 17.7907 24.4828C17.7907 24.6867 17.7409 24.7459 17.5323 24.7459C16.3851 24.7365 15.2378 24.7365 14.0906 24.7459C13.9057 24.7459 13.8535 24.6985 13.8535 24.5113C13.8583 20.4627 13.8583 16.4117 13.8535 12.3631C13.8535 12.1616 13.9199 12.1166 14.1095 12.1166C15.1975 12.1237 16.2879 12.1261 17.3759 12.1166C17.5774 12.1166 17.6271 12.1806 17.6248 12.3702C17.6129 12.8538 17.62 13.3373 17.62 13.8233L17.6177 13.8209Z" fill="#FAFAFA"/>
<path d="M11.3778 18.4476C11.3778 20.4506 11.3754 22.4536 11.3825 24.4565C11.3825 24.6793 11.328 24.7457 11.0981 24.7433C9.96028 24.7315 8.8225 24.7339 7.68235 24.7433C7.49983 24.7433 7.44531 24.6983 7.44531 24.511C7.45005 20.4553 7.45005 16.3996 7.44531 12.3416C7.44531 12.1733 7.48561 12.114 7.66339 12.114C8.81776 12.1211 9.97213 12.1235 11.1265 12.114C11.3493 12.114 11.3778 12.197 11.3778 12.389C11.373 14.4085 11.3754 16.4281 11.3754 18.4476H11.3778Z" fill="#FAFAFA"/>
<path d="M11.6933 8.09645C11.6933 9.35512 10.674 10.3791 9.41773 10.3791C8.17803 10.3791 7.14929 9.35512 7.14455 8.11542C7.13981 6.86386 8.16855 5.83275 9.42247 5.83275C10.6669 5.83275 11.6909 6.85438 11.6933 8.09408V8.09645Z" fill="#FAFAFA"/>
</g>
<defs>
<clipPath id="clip0_4068_10241">
<rect width="32" height="32" fill="white" transform="translate(0.378906 0.00364876)"/>
</clipPath>
</defs>
</svg>
