<svg width="102" height="32" viewBox="0 0 102 32" fill="none" xmlns="http://www.w3.org/2000/svg">
<g clip-path="url(#clip0_6484_8284)">
<path d="M54.4841 12.0121C54.7367 11.4217 55.0971 11.0184 55.5636 10.8056C56.03 10.5928 56.4864 10.468 56.9343 10.4312C57.4597 10.3943 58.0137 10.4408 58.5964 10.5704C57.3519 13.4171 56.2338 15.9662 55.2419 18.2209C54.8142 19.1826 54.3915 20.1331 53.9722 21.0757C53.5546 22.0182 53.1791 22.8679 52.849 23.6264C52.5173 24.3833 52.2411 25.0121 52.0171 25.5114C51.7931 26.0107 51.6618 26.2971 51.6231 26.3707C51.3503 26.9612 50.9916 27.3692 50.5436 27.5901C50.0957 27.8125 49.6494 27.9405 49.2015 27.9789C48.6761 28.0349 48.1221 27.9789 47.5394 27.8125C47.7735 27.2956 48.0261 26.7307 48.2972 26.1211C48.5313 25.585 48.7974 24.9705 49.0988 24.2776C49.4002 23.5848 49.7252 22.8503 50.0755 22.0742C50.0166 21.9446 49.8953 21.6773 49.7101 21.2709C49.5248 20.8644 49.311 20.3748 49.0685 19.8019C48.8243 19.229 48.5532 18.605 48.2518 17.9313C47.9503 17.2576 47.6539 16.5775 47.3626 15.8942C46.6621 14.286 45.8757 12.513 45 10.572C45.5827 10.4424 46.1384 10.396 46.6621 10.4328C47.11 10.4696 47.5613 10.5944 48.0194 10.8072C48.4757 11.02 48.8411 11.4217 49.1139 12.0137C49.1527 12.1066 49.2554 12.3418 49.4204 12.721C49.5855 13.1003 49.7892 13.5755 50.0334 14.1484C50.2759 14.7213 50.5537 15.355 50.8653 16.0478C51.1768 16.7407 51.4867 17.4384 51.7982 18.1409C52.1485 17.3648 52.4785 16.6255 52.7901 15.923C53.1016 15.2205 53.3778 14.5917 53.6219 14.038C53.8644 13.4843 54.0598 13.0267 54.2046 12.665C54.3511 12.305 54.442 12.0874 54.4825 12.0137L54.4841 12.0121Z" fill="#1A1A1A"/>
<path d="M70.0039 20.5781C70.238 20.7077 70.4602 20.9301 70.6741 21.2438L70.7617 21.327L70.6741 21.4102C70.0325 22.0759 69.268 22.5975 68.3839 22.9768C67.4981 23.356 66.5416 23.5448 65.511 23.5448C64.6169 23.5448 63.7749 23.3736 62.9885 23.0328C62.2004 22.6903 61.5049 22.2151 60.902 21.6054C60.3194 21.0149 59.8563 20.3156 59.5161 19.5123C59.1759 18.709 59.0059 17.8449 59.0059 16.92C59.0059 15.9951 59.1557 15.1326 59.4588 14.3277C59.7603 13.5244 60.1931 12.8171 60.7572 12.2074C61.3213 11.617 62.0067 11.1449 62.8133 10.7945C63.6199 10.444 64.5192 10.268 65.511 10.268C66.055 10.268 66.6528 10.3464 67.3045 10.5032C67.9562 10.6601 68.5641 10.9097 69.1282 11.2521C69.6924 11.5946 70.1588 12.0426 70.5293 12.5963C70.8981 13.15 71.0833 13.8156 71.0833 14.5917C71.0833 15.3678 70.8796 15.9647 70.4704 16.4352C70.0611 16.9072 69.5762 17.2769 69.012 17.5441C68.4479 17.8129 67.8501 17.997 67.2186 18.0978C66.5871 18.2002 66.0364 18.2498 65.57 18.2498C64.8509 18.2498 64.2228 18.2082 63.689 18.125C63.1535 18.0418 62.7897 17.9826 62.5944 17.9441C62.6719 18.6098 62.8285 19.1507 63.0609 19.5651C63.2949 19.9812 63.556 20.3092 63.849 20.5493C64.1403 20.7893 64.4316 20.9509 64.7246 21.0341C65.016 21.1173 65.2787 21.1589 65.5127 21.1589C65.9219 21.1589 66.3093 21.1221 66.6797 21.0485C67.0485 20.9749 67.3803 20.8917 67.6716 20.7989C67.9629 20.7061 68.2408 20.6149 68.5035 20.5221C68.7662 20.4292 69.0238 20.3828 69.2764 20.3828C69.5492 20.3828 69.7917 20.4485 70.0056 20.5765L70.0039 20.5781ZM65.511 12.6219C65.2972 12.6411 65.0446 12.6907 64.7533 12.7739C64.4619 12.8571 64.174 13.0091 63.8927 13.2316C63.6098 13.454 63.3539 13.7676 63.1198 14.1741C62.8857 14.5805 62.7207 15.099 62.6247 15.7263C62.9363 15.8191 63.3775 15.9071 63.9517 15.9903C64.5259 16.0735 65.0985 16.0879 65.6727 16.0319C66.2469 15.9759 66.7521 15.8191 67.19 15.5599C67.6278 15.3006 67.8652 14.867 67.904 14.2573C67.9427 13.7948 67.7524 13.398 67.3348 13.0651C66.9172 12.7323 66.3093 12.5851 65.511 12.6219Z" fill="#1A1A1A"/>
<path d="M79.5432 20.7716C79.5819 21.2517 79.5432 21.6869 79.427 22.0742C79.3293 22.407 79.1357 22.7254 78.8444 23.0311C78.553 23.3367 78.095 23.5063 77.4736 23.5431C76.8707 23.5991 76.3453 23.5383 75.8991 23.3623C75.4512 23.1863 75.0773 22.9415 74.7759 22.6278C74.4744 22.3142 74.2505 21.9445 74.1057 21.5189C73.9592 21.0932 73.8867 20.65 73.8867 20.1875V6.68827C73.8665 6.1346 73.8531 5.68655 73.843 5.3441C73.8329 5.00166 73.8177 4.72963 73.7992 4.5264C73.779 4.30398 73.7604 4.12955 73.7402 3.99994C74.946 3.99994 75.8705 4.23997 76.5121 4.72003C77.1536 5.20009 77.4753 5.98578 77.4753 7.07712V19.8563C77.4753 20.2995 77.5629 20.618 77.738 20.8132C77.9131 21.0068 78.1169 21.1236 78.351 21.1604C78.585 21.1972 78.8174 21.1748 79.0515 21.0916C79.2856 21.0084 79.4506 20.9028 79.5483 20.7732L79.5432 20.7716Z" fill="#1A1A1A"/>
<path d="M86.9807 20.7716C87.0194 21.2517 86.9807 21.6869 86.8645 22.0742C86.7668 22.407 86.5732 22.7254 86.2819 23.0311C85.9905 23.3367 85.5325 23.5063 84.9111 23.5431C84.3082 23.5991 83.7828 23.5383 83.3366 23.3623C82.8886 23.1863 82.5148 22.9415 82.2134 22.6278C81.9119 22.3142 81.688 21.9445 81.5432 21.5189C81.3966 21.0932 81.3242 20.65 81.3242 20.1875V6.68827C81.304 6.1346 81.2906 5.68655 81.2805 5.3441C81.2704 5.00166 81.2552 4.72963 81.2367 4.5264C81.2165 4.30398 81.1979 4.12955 81.1777 3.99994C82.3835 3.99994 83.308 4.23997 83.9496 4.72003C84.5911 5.20009 84.9128 5.98578 84.9128 7.07712V19.8563C84.9128 20.2995 85.0004 20.618 85.1755 20.8132C85.3506 21.0068 85.5544 21.1236 85.7885 21.1604C86.0225 21.1972 86.2549 21.1748 86.489 21.0916C86.7231 21.0084 86.8881 20.9028 86.9858 20.7732L86.9807 20.7716Z" fill="#1A1A1A"/>
<path d="M97.5427 12.0121C97.7953 11.4217 98.1557 11.0184 98.6222 10.8056C99.0886 10.5928 99.545 10.468 99.9929 10.4312C100.518 10.3943 101.072 10.4408 101.655 10.5704C100.411 13.4171 99.2924 15.9662 98.3005 18.2209C97.8728 19.1826 97.4501 20.1331 97.0308 21.0757C96.6132 22.0182 96.2376 22.8679 95.9076 23.6264C95.5758 24.3833 95.2997 25.0121 95.0757 25.5114C94.8517 26.0107 94.7204 26.2971 94.6817 26.3707C94.4089 26.9612 94.0502 27.3692 93.6022 27.5901C93.1543 27.8125 92.708 27.9405 92.2601 27.9789C91.7347 28.0349 91.1807 27.9789 90.598 27.8125C90.8321 27.2956 91.0847 26.7307 91.3558 26.1211C91.5899 25.585 91.856 24.9705 92.1574 24.2776C92.4588 23.5848 92.7838 22.8503 93.1341 22.0742C93.0752 21.9446 92.9539 21.6773 92.7687 21.2709C92.5834 20.8644 92.3696 20.3748 92.1271 19.8019C91.8829 19.229 91.6118 18.605 91.3103 17.9313C91.0089 17.2576 90.7125 16.5775 90.4212 15.8942C89.7207 14.286 88.9343 12.513 88.0586 10.572C88.6412 10.4424 89.197 10.396 89.7207 10.4328C90.1686 10.4696 90.6199 10.5944 91.078 10.8072C91.5343 11.02 91.8997 11.4217 92.1725 12.0137C92.2113 12.1066 92.314 12.3418 92.479 12.721C92.6441 13.1003 92.8478 13.5755 93.092 14.1484C93.3345 14.7213 93.6123 15.355 93.9239 16.0478C94.2354 16.7407 94.5453 17.4384 94.8568 18.1409C95.2071 17.3648 95.5371 16.6255 95.8487 15.923C96.1602 15.2205 96.4364 14.5917 96.6805 14.038C96.923 13.4843 97.1184 13.0267 97.2632 12.665C97.4097 12.305 97.5006 12.0874 97.541 12.0137L97.5427 12.0121Z" fill="#1A1A1A"/>
<path d="M22.3982 24.1652C23.1617 24.1652 23.7807 23.5771 23.7807 22.8516C23.7807 22.1262 23.1617 21.5381 22.3982 21.5381C21.6346 21.5381 21.0156 22.1262 21.0156 22.8516C21.0156 23.5771 21.6346 24.1652 22.3982 24.1652Z" fill="#1A1A1A"/>
<path d="M31.2731 0H2.40471C1.07606 0 0 1.02395 0 2.28629V29.7137C0 30.9761 1.07606 32 2.40471 32H31.2731C32.6017 32 33.6795 30.9761 33.6795 29.7137V2.28629C33.6795 1.02395 32.6017 0 31.2731 0ZM14.7011 24.2884C14.078 25.2531 12.9565 25.8963 11.68 25.8963C10.9879 25.8963 10.3396 25.7075 9.7923 25.3795L13.3657 19.559L14.7179 17.3591L11.6969 12.441L8.12349 6.62047C8.66909 6.29569 9.31574 6.1053 10.0095 6.1053C11.2944 6.1053 12.421 6.75486 13.0424 7.72761L16.8397 13.9081L20.5495 7.87001C20.5815 7.81881 20.6118 7.76601 20.6438 7.71481C21.2686 6.75006 22.3884 6.10689 23.6699 6.10689C24.362 6.10689 25.0104 6.29569 25.5577 6.62367L21.9843 12.4426L14.8021 24.1332C14.7701 24.186 14.7381 24.2388 14.7045 24.29L14.7011 24.2884ZM22.3985 25.8963C20.6236 25.8963 19.1939 24.5364 19.1939 22.8517C19.1939 21.1669 20.6219 19.807 22.3985 19.807C24.1751 19.807 25.6031 21.1653 25.6031 22.8517C25.6031 24.538 24.1734 25.8963 22.3985 25.8963Z" fill="#1A1A1A"/>
</g>
<defs>
<clipPath id="clip0_6484_8284">
<rect width="102" height="32" fill="white"/>
</clipPath>
</defs>
</svg>
