<svg width="97" height="96" viewBox="0 0 97 96" fill="none" xmlns="http://www.w3.org/2000/svg">
<rect x="3.24512" y="48" width="64" height="64" rx="8" transform="rotate(-45 3.24512 48)" fill="#FFC700"/>
<path d="M42.4091 67.091L38.9545 61.1819L32.0909 59.7728L32.8636 53.091L28.5 48.0001L32.8636 42.9546L32.0909 36.2728L38.9545 34.8637L42.4091 28.9092L48.5 31.7274L54.5909 28.9092L58.0909 34.8637L64.9091 36.2728L64.1363 42.9546L68.5 48.0001L64.1363 53.091L64.9091 59.7728L58.0909 61.1819L54.5909 67.091L48.5 64.2728L42.4091 67.091ZM46.5454 54.0455L56.8636 43.8183L54.8182 41.9546L46.5454 50.1364L42.2273 45.6364L40.1364 47.6819L46.5454 54.0455Z" fill="#1C1B1F"/>
</svg>
