<svg width="18" height="24" viewBox="0 0 18 24" fill="none" xmlns="http://www.w3.org/2000/svg">
<path fill-rule="evenodd" clip-rule="evenodd" d="M0 3C0 2.20435 0.316071 1.44129 0.87868 0.87868C1.44129 0.31607 2.20435 0 3 0L15 0C15.7956 0 16.5587 0.31607 17.1213 0.87868C17.6839 1.44129 18 2.20435 18 3V17C18 17.7956 17.6839 18.5587 17.1213 19.1213C16.5587 19.6839 15.7956 20 15 20H3C2.20435 20 1.44129 19.6839 0.87868 19.1213C0.316071 18.5587 0 17.7956 0 17V3ZM3 2C2.73478 2 2.48043 2.10536 2.29289 2.29289C2.10536 2.48043 2 2.73478 2 3V17C2 17.2652 2.10536 17.5196 2.29289 17.7071C2.48043 17.8946 2.73478 18 3 18H15C15.2652 18 15.5196 17.8946 15.7071 17.7071C15.8946 17.5196 16 17.2652 16 17V3C16 2.73478 15.8946 2.48043 15.7071 2.29289C15.5196 2.10536 15.2652 2 15 2H3Z" fill="#1A1A1A"/>
<path fill-rule="evenodd" clip-rule="evenodd" d="M3 4C3 3.73478 3.10536 3.48043 3.29289 3.29289C3.48043 3.10536 3.73478 3 4 3H14C14.2652 3 14.5196 3.10536 14.7071 3.29289C14.8946 3.48043 15 3.73478 15 4V7C15 7.26522 14.8946 7.51957 14.7071 7.70711C14.5196 7.89464 14.2652 8 14 8H4C3.73478 8 3.48043 7.89464 3.29289 7.70711C3.10536 7.51957 3 7.26522 3 7V4ZM5 5V6H13V5H5ZM3.5 10C3.5 9.73478 3.60536 9.48043 3.79289 9.29289C3.98043 9.10536 4.23478 9 4.5 9H5.5C5.76522 9 6.01957 9.10536 6.20711 9.29289C6.39464 9.48043 6.5 9.73478 6.5 10C6.5 10.2652 6.39464 10.5196 6.20711 10.7071C6.01957 10.8946 5.76522 11 5.5 11H4.5C4.23478 11 3.98043 10.8946 3.79289 10.7071C3.60536 10.5196 3.5 10.2652 3.5 10ZM7.5 10C7.5 9.73478 7.60536 9.48043 7.79289 9.29289C7.98043 9.10536 8.23478 9 8.5 9H9.5C9.76522 9 10.0196 9.10536 10.2071 9.29289C10.3946 9.48043 10.5 9.73478 10.5 10C10.5 10.2652 10.3946 10.5196 10.2071 10.7071C10.0196 10.8946 9.76522 11 9.5 11H8.5C8.23478 11 7.98043 10.8946 7.79289 10.7071C7.60536 10.5196 7.5 10.2652 7.5 10ZM3.5 13C3.5 12.7348 3.60536 12.4804 3.79289 12.2929C3.98043 12.1054 4.23478 12 4.5 12H5.5C5.76522 12 6.01957 12.1054 6.20711 12.2929C6.39464 12.4804 6.5 12.7348 6.5 13C6.5 13.2652 6.39464 13.5196 6.20711 13.7071C6.01957 13.8946 5.76522 14 5.5 14H4.5C4.23478 14 3.98043 13.8946 3.79289 13.7071C3.60536 13.5196 3.5 13.2652 3.5 13ZM3.5 16C3.5 15.7348 3.60536 15.4804 3.79289 15.2929C3.98043 15.1054 4.23478 15 4.5 15H5.5C5.76522 15 6.01957 15.1054 6.20711 15.2929C6.39464 15.4804 6.5 15.7348 6.5 16C6.5 16.2652 6.39464 16.5196 6.20711 16.7071C6.01957 16.8946 5.76522 17 5.5 17H4.5C4.23478 17 3.98043 16.8946 3.79289 16.7071C3.60536 16.5196 3.5 16.2652 3.5 16ZM7.5 13C7.5 12.7348 7.60536 12.4804 7.79289 12.2929C7.98043 12.1054 8.23478 12 8.5 12H9.5C9.76522 12 10.0196 12.1054 10.2071 12.2929C10.3946 12.4804 10.5 12.7348 10.5 13C10.5 13.2652 10.3946 13.5196 10.2071 13.7071C10.0196 13.8946 9.76522 14 9.5 14H8.5C8.23478 14 7.98043 13.8946 7.79289 13.7071C7.60536 13.5196 7.5 13.2652 7.5 13ZM7.5 16C7.5 15.7348 7.60536 15.4804 7.79289 15.2929C7.98043 15.1054 8.23478 15 8.5 15H9.5C9.76522 15 10.0196 15.1054 10.2071 15.2929C10.3946 15.4804 10.5 15.7348 10.5 16C10.5 16.2652 10.3946 16.5196 10.2071 16.7071C10.0196 16.8946 9.76522 17 9.5 17H8.5C8.23478 17 7.98043 16.8946 7.79289 16.7071C7.60536 16.5196 7.5 16.2652 7.5 16ZM11.5 10C11.5 9.73478 11.6054 9.48043 11.7929 9.29289C11.9804 9.10536 12.2348 9 12.5 9H13.5C13.7652 9 14.0196 9.10536 14.2071 9.29289C14.3946 9.48043 14.5 9.73478 14.5 10C14.5 10.2652 14.3946 10.5196 14.2071 10.7071C14.0196 10.8946 13.7652 11 13.5 11H12.5C12.2348 11 11.9804 10.8946 11.7929 10.7071C11.6054 10.5196 11.5 10.2652 11.5 10ZM11.5 13C11.5 12.7348 11.6054 12.4804 11.7929 12.2929C11.9804 12.1054 12.2348 12 12.5 12H13.5C13.7652 12 14.0196 12.1054 14.2071 12.2929C14.3946 12.4804 14.5 12.7348 14.5 13C14.5 13.2652 14.3946 13.5196 14.2071 13.7071C14.0196 13.8946 13.7652 14 13.5 14H12.5C12.2348 14 11.9804 13.8946 11.7929 13.7071C11.6054 13.5196 11.5 13.2652 11.5 13ZM11.5 16C11.5 15.7348 11.6054 15.4804 11.7929 15.2929C11.9804 15.1054 12.2348 15 12.5 15H13.5C13.7652 15 14.0196 15.1054 14.2071 15.2929C14.3946 15.4804 14.5 15.7348 14.5 16C14.5 16.2652 14.3946 16.5196 14.2071 16.7071C14.0196 16.8946 13.7652 17 13.5 17H12.5C12.2348 17 11.9804 16.8946 11.7929 16.7071C11.6054 16.5196 11.5 16.2652 11.5 16ZM3 18H15V22C15 22.5304 14.7893 23.0391 14.4142 23.4142C14.0391 23.7893 13.5304 24 13 24H5C4.46957 24 3.96086 23.7893 3.58579 23.4142C3.21071 23.0391 3 22.5304 3 22V18ZM5 20V22H13V20H5Z" fill="#1A1A1A"/>
</svg>
