<svg width="24" height="24" viewBox="0 0 24 24" fill="none" xmlns="http://www.w3.org/2000/svg">
<path d="M12 2C6.477 2 2 6.477 2 12C2 17.523 6.477 22 12 22C17.523 22 22 17.523 22 12C22 6.477 17.523 2 12 2ZM0 12C0 5.373 5.373 0 12 0C18.627 0 24 5.373 24 12C24 18.627 18.627 24 12 24C5.373 24 0 18.627 0 12Z" fill="#1A1A1A"/>
<path d="M13 4V20H11V4H13Z" fill="#1A1A1A"/>
<path d="M11.3327 5.49303C12.9747 5.37503 14.8537 5.79103 15.8577 6.34303L16.7337 6.82403L15.7707 8.57703L14.8937 8.09503C14.2767 7.75503 12.7917 7.39403 11.4757 7.48803C10.8257 7.53503 10.3427 7.68503 10.0477 7.89303C9.8077 8.06303 9.6487 8.29303 9.6487 8.73203C9.6487 9.28303 9.8607 9.61003 10.2527 9.89803C10.7137 10.235 11.3707 10.476 12.2067 10.755L12.3857 10.815C13.1127 11.055 13.9787 11.342 14.6617 11.781C15.4717 12.303 16.1327 13.111 16.1327 14.351C16.1327 15.399 15.7827 16.267 15.1157 16.897C14.4757 17.502 13.6387 17.799 12.8097 17.923C11.1667 18.169 9.2057 17.794 7.6617 17.237L6.7207 16.897L7.3997 15.016L8.3397 15.356C9.7137 15.851 11.3197 16.124 12.5127 15.946C13.1027 15.856 13.5007 15.672 13.7417 15.444C13.9567 15.241 14.1327 14.924 14.1327 14.351C14.1327 13.969 13.9837 13.724 13.5777 13.463C13.1177 13.166 12.4837 12.955 11.6657 12.683L11.5747 12.653C10.7897 12.391 9.8257 12.064 9.0707 11.511C8.2477 10.907 7.6487 10.018 7.6487 8.73203C7.6487 7.63603 8.1287 6.79903 8.8957 6.25803C9.6087 5.75503 10.5037 5.55303 11.3327 5.49303Z" fill="#1A1A1A"/>
</svg>
