<svg width="20" height="18" viewBox="0 0 20 18" fill="none" xmlns="http://www.w3.org/2000/svg">
<path fill-rule="evenodd" clip-rule="evenodd" d="M12.4336 1.08819C12.0787 0.734784 11.5045 0.735975 11.1511 1.09085C10.7977 1.44573 10.7989 2.01991 11.1538 2.37332L16.873 8.0689H0.906842C0.406012 8.0689 0 8.47491 0 8.97574C0 9.47658 0.406012 9.88258 0.906842 9.88258H16.9217L11.1538 15.6266C10.7989 15.9801 10.7977 16.5543 11.1511 16.9092C11.5045 17.264 12.0787 17.2652 12.4336 16.9118L19.733 9.64256C19.9039 9.47239 20 9.24116 20 9C20 8.75884 19.9039 8.5276 19.733 8.35743L12.4336 1.08819Z" fill="#FFFF00"/>
</svg>