<svg width="24" height="24" viewBox="0 0 24 24" fill="none" xmlns="http://www.w3.org/2000/svg">
<path d="M7.22148 24C6.56148 24 5.99648 23.765 5.52648 23.295C5.05648 22.825 4.82148 22.26 4.82148 21.6C4.82148 20.94 5.05648 20.375 5.52648 19.905C5.99648 19.435 6.56148 19.2 7.22148 19.2C7.88148 19.2 8.44648 19.435 8.91648 19.905C9.38648 20.375 9.62148 20.94 9.62148 21.6C9.62148 22.26 9.38648 22.825 8.91648 23.295C8.44648 23.765 7.88148 24 7.22148 24ZM19.2215 24C18.5615 24 17.9965 23.765 17.5265 23.295C17.0565 22.825 16.8215 22.26 16.8215 21.6C16.8215 20.94 17.0565 20.375 17.5265 19.905C17.9965 19.435 18.5615 19.2 19.2215 19.2C19.8815 19.2 20.4465 19.435 20.9165 19.905C21.3865 20.375 21.6215 20.94 21.6215 21.6C21.6215 22.26 21.3865 22.825 20.9165 23.295C20.4465 23.765 19.8815 24 19.2215 24ZM6.20148 4.8L9.08148 10.8H17.4815L20.7815 4.8H6.20148ZM5.06148 2.4H22.7615C23.2215 2.4 23.5715 2.605 23.8115 3.015C24.0515 3.425 24.0615 3.84 23.8415 4.26L19.5815 11.94C19.3615 12.34 19.0665 12.65 18.6965 12.87C18.3265 13.09 17.9215 13.2 17.4815 13.2H8.54148L7.22148 15.6H21.6215V18H7.22148C6.32148 18 5.64148 17.605 5.18148 16.815C4.72148 16.025 4.70148 15.24 5.12148 14.46L6.74148 11.52L2.42148 2.4H0.0214844V0H3.92148L5.06148 2.4Z" fill="#1C1B1F"/>
</svg>
