<svg width="24" height="24" viewBox="0 0 24 24" fill="none" xmlns="http://www.w3.org/2000/svg">
<path fill-rule="evenodd" clip-rule="evenodd" d="M15 2C13.9391 2 12.9217 2.42143 12.1716 3.17157C11.4214 3.92172 11 4.93913 11 6C11 7.06087 11.4214 8.07828 12.1716 8.82843C12.9217 9.57857 13.9391 10 15 10C16.0609 10 17.0783 9.57857 17.8284 8.82843C18.5786 8.07828 19 7.06087 19 6C19 4.93913 18.5786 3.92172 17.8284 3.17157C17.0783 2.42143 16.0609 2 15 2ZM9 6C9 4.4087 9.63214 2.88258 10.7574 1.75736C11.8826 0.632141 13.4087 0 15 0C16.5913 0 18.1174 0.632141 19.2426 1.75736C20.3679 2.88258 21 4.4087 21 6C21 7.5913 20.3679 9.11742 19.2426 10.2426C18.1174 11.3679 16.5913 12 15 12C13.4087 12 11.8826 11.3679 10.7574 10.2426C9.63214 9.11742 9 7.5913 9 6ZM0 11H2C2.65 11 3.728 11.124 4.802 11.46C5.7 11.74 6.732 12.21 7.472 13H10C11.3261 13 12.5979 13.5268 13.5355 14.4645C14.4732 15.4021 15 16.6739 15 18V19H7V17H12.828C12.6212 16.4152 12.2383 15.9088 11.7318 15.5506C11.2253 15.1925 10.6203 15.0001 10 15H6.48L6.18 14.574C5.824 14.064 5.107 13.65 4.206 13.369C3.33 13.095 2.454 13 2 13V18.382L8.014 21.388C8.70396 21.7334 9.50046 21.7996 10.238 21.573L20.728 18.345C20.5918 17.9522 20.3367 17.6116 19.9979 17.3705C19.6592 17.1294 19.2537 16.9999 18.838 17H16V15H18.838C19.6776 14.9999 20.4959 15.264 21.177 15.7549C21.8581 16.2458 22.3675 16.9385 22.633 17.735L23.272 19.655L10.826 23.485C9.59701 23.8626 8.26979 23.7523 7.12 23.177L0 19.618V11Z" fill="#1A1A1A"/>
<path fill-rule="evenodd" clip-rule="evenodd" d="M16 4V8H14V4H16Z" fill="#1A1A1A"/>
</svg>
