<svg width="25" height="20" viewBox="0 0 25 20" fill="none" xmlns="http://www.w3.org/2000/svg">
<path d="M18.5259 3.79663C19.1917 3.54541 19.9912 3.77263 20.3735 4.40796L21.0893 5.59546L21.1294 5.66968C21.2925 6.01962 21.164 6.42398 20.8501 6.63354L20.7798 6.67554C20.4265 6.86297 19.9745 6.77225 19.7329 6.45093L19.688 6.38354L19.0337 5.29761L18.0464 5.81128L21.1636 10.9871H21.1626C21.1685 10.9965 21.1753 11.0061 21.1811 11.0164L21.4292 11.4275L22.4165 10.9138L21.7065 9.73608C21.4718 9.34656 21.6282 8.86358 22.0161 8.65698L22.0884 8.6228C22.4534 8.47189 22.8965 8.59589 23.1089 8.948L23.9028 10.2654L23.9057 10.2703L23.9096 10.2771L23.9106 10.2781V10.2791L23.9194 10.2937L23.9214 10.2986L23.9868 10.4285C24.2749 11.0905 23.9991 11.8706 23.3276 12.2195L23.3266 12.2185L22.104 12.8552L22.103 12.8542L22.0991 12.8572L22.0737 12.8708L22.0698 12.8728C21.4016 13.1992 20.5545 13.0058 20.1313 12.3816C20.0368 12.437 19.9519 12.4981 19.8764 12.5623C20.2576 13.1872 20.2206 14.0007 19.7114 14.5964L19.7104 14.5955C19.4589 14.8902 19.1293 15.0861 18.7759 15.1843C18.7481 15.5356 18.6129 15.8813 18.3647 16.1736L18.3657 16.1746L18.3647 16.1755L18.3598 16.1814L18.3354 16.2097L18.3325 16.2136L18.3315 16.2126C18.0838 16.4877 17.7664 16.6721 17.4272 16.7664C17.3991 17.1187 17.2644 17.4668 17.0141 17.7595L17.0132 17.7585C16.5769 18.2707 15.9081 18.4881 15.2759 18.4031C15.2142 18.5441 15.1352 18.6808 15.0337 18.8064L15.0307 18.8103L15.0063 18.8396L15.0005 18.8464L14.9751 18.8757L14.9721 18.8787C14.3231 19.6015 13.192 19.7142 12.3999 19.1511L12.397 19.1482L12.3657 19.1257C12.3645 19.1249 12.363 19.1237 12.3618 19.1228L12.0483 18.8884L12.0366 18.8982L12.0337 18.9001L11.0766 19.6199L11.0727 19.6228L11.0415 19.6453L11.0376 19.6482C10.2317 20.2211 9.07636 20.0943 8.43406 19.3406V19.3396C8.18483 19.0472 8.04796 18.7004 8.02 18.3484C7.66665 18.25 7.33605 18.0534 7.08445 17.7576V17.7566C6.83605 17.4645 6.6994 17.1181 6.67137 16.7664C6.37531 16.6838 6.09539 16.533 5.86473 16.3123L5.73777 16.1775C5.48765 15.8848 5.3509 15.5375 5.32273 15.1853C4.98354 15.0909 4.6658 14.9062 4.41844 14.6306L4.41551 14.6267L4.39012 14.5984L4.38719 14.5955L4.65379 14.3679L4.38719 14.5945C3.88109 14 3.84158 13.1875 4.22312 12.5623C4.14735 12.4979 4.06199 12.4371 3.96727 12.3816C3.54401 13.0053 2.6979 13.1992 2.02977 12.8728L2.02586 12.8708L2.00047 12.8572L1.99559 12.8552L0.771953 12.2185V12.2195C0.0449121 11.8418 -0.218831 10.9574 0.198711 10.2654L3.72605 4.40796L3.80906 4.28491C4.25223 3.69565 5.08786 3.53367 5.73777 3.86987H5.73875L5.7407 3.87085L6.95848 4.50366C6.9601 4.5045 6.96173 4.50575 6.96336 4.50659C7.52915 4.8003 7.81585 5.40033 7.71727 5.97925L8.33348 6.14722C8.38702 6.10495 8.4429 6.06615 8.49949 6.03101L8.68113 5.93042C9.12405 5.71356 9.68273 5.61884 10.2456 5.57202L12.2261 5.40503L12.3657 5.39331H12.3677L12.6118 5.37866C12.6998 5.37626 12.7943 5.37731 12.895 5.38452L13.105 5.40796C13.3188 5.43952 13.5475 5.49668 13.8159 5.58472L15.0112 5.97729L15.4868 6.14233L15.6089 6.17944C15.6147 6.17903 15.6298 6.17804 15.6596 6.17261C15.7288 6.15999 15.8492 6.13195 16.0698 6.07202L16.3833 5.98608C16.2813 5.40509 16.5682 4.80141 17.1362 4.50659L18.3501 3.87573L18.3647 3.8689L18.3911 3.85522L18.394 3.85327L18.5259 3.79663ZM11.0708 17.3494C10.981 17.2538 10.8103 17.2314 10.6929 17.3123L10.6938 17.3132L10.6811 17.322L10.6802 17.323L10.6792 17.322L10.6772 17.323L10.6782 17.324L9.72801 18.0378L9.72703 18.0369L9.72019 18.0417L9.72117 18.0427C9.62085 18.1224 9.61065 18.2536 9.68406 18.3425L9.69187 18.3523C9.7807 18.4497 9.95609 18.4723 10.0757 18.3875L10.0845 18.3806L11.0376 17.6648L11.0434 17.6599C11.1441 17.5804 11.154 17.4501 11.0815 17.3611L11.0718 17.3494H11.0708ZM4.7866 11.0281C5.01686 11.1605 5.23226 11.3188 5.4243 11.5007L6.39598 10.7722L6.39988 10.7693C7.20617 10.1678 8.38583 10.2858 9.03855 11.0515V11.0525L9.16746 11.2224C9.21415 11.2927 9.25312 11.3667 9.28855 11.4412C9.95503 11.3124 10.6788 11.5275 11.1401 12.0691L11.2368 12.1921C11.6066 12.7111 11.6519 13.3618 11.4028 13.9109C11.4664 13.9563 11.5282 14.0055 11.5864 14.0593L11.7348 14.2146L11.7368 14.2166H11.7378L11.7387 14.2185L11.7632 14.2478L11.7661 14.2517L11.8569 14.3738C12.2042 14.8869 12.2422 15.5215 11.9985 16.0583C12.0625 16.104 12.1246 16.1535 12.1831 16.2078L12.3315 16.363L12.4409 16.5056C12.6361 16.7874 12.7364 17.1082 12.7475 17.4304L13.3569 17.8865L13.4038 17.9148C13.5187 17.9687 13.6666 17.9419 13.7466 17.8533L13.7505 17.8484C13.8263 17.7594 13.8174 17.6249 13.7124 17.5427V17.5417L13.0473 17.0427C12.9281 16.9531 12.8403 16.8354 12.7886 16.7048L12.7485 16.5701L12.7446 16.5457L12.7387 16.5066L12.7368 16.4851C12.734 16.4493 12.7335 16.412 12.7358 16.3757L12.7407 16.3289L12.7436 16.3064L12.7466 16.2898V16.2888L12.7475 16.2878V16.2859C12.7479 16.2839 12.7487 16.28 12.7495 16.2761L12.7739 16.1833C12.8046 16.0918 12.854 16.0054 12.9194 15.9285L12.9887 15.8552C13.0132 15.8329 13.0393 15.8125 13.0659 15.7937H13.0669V15.7927C13.0675 15.7923 13.0687 15.7916 13.0698 15.7908L13.1499 15.7419C13.1481 15.7429 13.146 15.7439 13.146 15.7439C13.1462 15.7438 13.1494 15.7418 13.1528 15.74L13.1743 15.7292L13.1753 15.7283V15.7292L13.1821 15.7253L13.1919 15.7205L13.2007 15.7166L13.2055 15.7146L13.2065 15.7136H13.2075L13.2182 15.7087L13.2251 15.7058L13.2348 15.7019L13.2407 15.7L13.2417 15.699H13.2427L13.2544 15.6951L13.2573 15.6931L13.2671 15.6902H13.2661C13.2666 15.69 13.268 15.6896 13.269 15.6892C13.2706 15.6886 13.2731 15.6882 13.2759 15.6873L13.2905 15.6824L13.2944 15.6814V15.6804H13.2954L13.3071 15.6765L13.3149 15.6746H13.3159C13.3171 15.6742 13.3202 15.6736 13.3237 15.6726L13.3305 15.6707L13.3325 15.6697H13.3335L13.3413 15.6677L13.3725 15.6609L13.3774 15.6599L13.4096 15.6531H13.4136L13.4458 15.6482H13.4516L13.4819 15.6453L13.4839 15.6443C13.485 15.6442 13.4874 15.6444 13.4897 15.6443L13.52 15.6433L13.522 15.6423H13.5649L13.5757 15.6433H13.5932L13.6001 15.6443H13.605L13.6128 15.6453L13.6225 15.6462H13.6294C13.632 15.6465 13.6298 15.6471 13.6313 15.6472H13.6391L13.6528 15.6492H13.6538C13.658 15.6497 13.6613 15.6508 13.6636 15.6511H13.6645L13.6548 15.6492L13.6694 15.6511L13.6811 15.6531L13.686 15.6541L13.6977 15.656L13.6997 15.657L13.7075 15.658L13.7134 15.6589L13.7143 15.6599L13.7358 15.6638L13.7427 15.6658L13.7554 15.6687L13.7622 15.6707L13.7729 15.6736L13.7749 15.6746C13.7761 15.6749 13.7786 15.6749 13.7807 15.6755L13.7983 15.6814L13.811 15.6853L13.8227 15.6892C13.8248 15.69 13.8235 15.6898 13.8247 15.6902L13.8354 15.6941L13.8423 15.697L13.854 15.7009L13.8628 15.7048L13.8598 15.7039L13.8716 15.7087L13.9165 15.7292L13.9253 15.7332L13.9702 15.7585L14.0073 15.782L14.0239 15.7927L14.0434 15.8074L14.7055 16.3044L14.7143 16.3113L15.3677 16.8015L15.4165 16.8308C15.5341 16.8851 15.6844 16.8546 15.7612 16.7644L15.769 16.7546C15.8384 16.6656 15.827 16.5345 15.7212 16.4548V16.4539L14.396 15.4617C14.1734 15.2947 14.0623 15.0332 14.0864 14.7732L14.103 14.6707C14.1034 14.6687 14.104 14.6647 14.105 14.6609L14.1362 14.5642C14.1485 14.5331 14.1627 14.502 14.1792 14.4724L14.1909 14.4539L14.2417 14.3787L14.2671 14.3474L14.27 14.3435L14.3003 14.3103L14.3511 14.2625L14.3725 14.2439L14.4136 14.2126L14.4634 14.1794L14.4673 14.1775L14.48 14.1707L14.4878 14.1658H14.4887L14.4897 14.1648C14.4907 14.1642 14.4928 14.1629 14.4946 14.1619L14.5073 14.156L14.5122 14.1531L14.5239 14.1472H14.5229C14.5238 14.1468 14.5264 14.1455 14.5288 14.1443L14.5464 14.1365L14.5532 14.1326L14.5552 14.1316H14.5571L14.5581 14.1306L14.5718 14.1248H14.5737L14.5815 14.1208L14.5942 14.116L14.5981 14.115L14.6118 14.1101V14.1091H14.6128C14.6136 14.1089 14.6153 14.1086 14.6167 14.1082L14.6304 14.1033L14.6343 14.1023L14.646 14.0984L14.6596 14.0945L14.6616 14.0935H14.6636L14.6655 14.0925L14.6792 14.0886H14.6811L14.686 14.0867H14.687L14.6909 14.0857L14.6938 14.0847L14.7192 14.0789L14.7261 14.0779L14.7583 14.072L14.7622 14.071L14.7602 14.072L14.7944 14.0671L14.7983 14.0662H14.7993L14.8305 14.0632H14.8354L14.8677 14.0613H14.9292L14.9438 14.0623H14.9468L14.9634 14.0642L14.9585 14.0632H14.9604C14.9616 14.0633 14.9633 14.064 14.9653 14.0642L14.979 14.0652L14.9878 14.0662L15.0014 14.0681L15.0542 14.0759H15.0532C15.054 14.0761 15.055 14.0767 15.0561 14.0769H15.0591L15.0669 14.0789L15.0698 14.0798L15.1108 14.0896L15.1196 14.0916H15.1186L15.1206 14.0925L15.1284 14.0945L15.1333 14.0955L15.2661 14.1482C15.3093 14.1698 15.3513 14.1955 15.3911 14.2253L16.7173 15.2185H16.7163L16.7182 15.2195L16.7212 15.2214L16.7231 15.2234H16.7241C16.829 15.2979 16.9792 15.2893 17.0747 15.2166L17.1118 15.1814C17.1877 15.0916 17.1784 14.9546 17.0698 14.8728V14.8738L15.8481 13.9568C15.492 13.6896 15.4266 13.1857 15.7192 12.8416L15.7739 12.783C16.0619 12.506 16.5212 12.4789 16.8432 12.7205L18.062 13.6345L18.0669 13.6384L18.1147 13.6667C18.2314 13.7209 18.3818 13.6913 18.4595 13.6003L18.4624 13.5974C18.4632 13.5965 18.4638 13.5952 18.4643 13.5945V13.5935L18.4653 13.5945V13.5925C18.5352 13.5042 18.5247 13.3753 18.4253 13.2966V13.2957L18.4165 13.2898V13.2888L16.937 12.1794C16.399 11.7765 15.8146 11.345 15.2378 10.9402L14.6655 10.5466C14.0045 10.102 13.6017 9.80514 13.2007 9.61011L13.0278 9.53198C12.6828 9.39025 12.3017 9.31934 11.7163 9.39722L11.4516 9.44019C10.7826 9.56671 10.1035 9.56699 9.49852 9.37671L9.24363 9.28394C8.55823 8.99388 8.05481 8.44817 7.84812 7.69312V7.69116L7.83934 7.65991C7.83791 7.65455 7.83659 7.64874 7.83543 7.64331V7.64233C7.83514 7.64116 7.83474 7.6396 7.83445 7.63843L6.97019 7.40308L4.7866 11.0281ZM10.4468 15.1755C10.3522 15.1032 10.2031 15.0923 10.0981 15.1648L10.0991 15.1658L10.0864 15.1736L10.0874 15.1746L10.0776 15.1814L10.0737 15.1843L10.0649 15.1902L8.37937 16.4548L8.3784 16.4558C8.27122 16.5366 8.26035 16.6717 8.33641 16.7625L8.34227 16.7693L8.38035 16.8025C8.47646 16.8723 8.62773 16.8792 8.73191 16.8015H8.73289L8.73387 16.7996L10.438 15.5212L10.4389 15.5203C10.4398 15.5196 10.4421 15.5186 10.4438 15.5173L10.4477 15.5134C10.5485 15.4341 10.5596 15.3009 10.4839 15.2107L10.4468 15.1755ZM8.39695 16.4402C8.39611 16.4409 8.39451 16.4419 8.39305 16.4431C8.39002 16.4457 8.38543 16.4503 8.37937 16.4548L8.39891 16.4392H8.39793L8.39695 16.4402ZM9.85008 13.0281C9.76738 12.9653 9.64205 12.9502 9.54148 12.9968L9.49363 13.0251L7.02977 14.8738L7.02879 14.8728C6.92165 14.954 6.91256 15.089 6.9868 15.1785L6.99363 15.1863L7.03172 15.2205C7.12812 15.2903 7.27872 15.2975 7.38328 15.2195L9.84617 13.3718L9.85496 13.365C9.9534 13.2848 9.96213 13.1563 9.89109 13.0681V13.0671L9.88719 13.0632L9.85008 13.0281ZM7.78562 12.0466C7.70701 11.9545 7.55715 11.9257 7.43992 11.9802L7.39207 12.0085L5.68211 13.2898L5.68309 13.2908L5.67332 13.2966L5.6743 13.2976C5.57417 13.377 5.56352 13.5093 5.63914 13.5994L5.64402 13.6052L5.68113 13.6384C5.7759 13.7077 5.92428 13.716 6.02781 13.6423L6.03465 13.6365L7.72703 12.3669C7.73298 12.3622 7.73925 12.357 7.74559 12.3523L7.78074 12.3201C7.84263 12.2513 7.85222 12.1582 7.81102 12.0828L7.78562 12.0466ZM12.3677 6.9646L10.3862 7.13159L10.3305 7.1355L10.3315 7.13647C9.8364 7.18125 9.56038 7.2602 9.42625 7.32397C9.50904 7.59659 9.6692 7.75478 9.895 7.85034L10.0034 7.8894C10.2333 7.961 10.5463 7.98813 10.938 7.93628L11.1401 7.90308L11.5083 7.84448C12.3434 7.7356 13.0196 7.82701 13.6636 8.09155L13.9106 8.20288C14.4831 8.48033 15.0284 8.88273 15.5884 9.25952L15.5942 9.26245H15.5932C16.3824 9.79401 17.2095 10.4019 17.9321 10.9431L18.6753 11.4998C18.8669 11.3181 19.0822 11.1603 19.312 11.0281L17.1323 7.40894L16.5102 7.57886L16.5093 7.57788V7.57886L16.3657 7.61792H16.3638C16.0808 7.69289 15.8109 7.75669 15.5268 7.7439L15.4048 7.73315C15.3139 7.7219 15.2285 7.70344 15.1509 7.68237L14.9399 7.61597C14.8127 7.572 14.7191 7.53588 14.5591 7.48218V7.48315L14.4887 7.45874V7.45972L13.2954 7.06714V7.06812L13.2417 7.05054V7.04956C12.9996 6.97302 12.8653 6.95254 12.7749 6.94604H12.6137L12.3677 6.9646ZM1.68309 10.9138L2.67039 11.4275L2.91844 11.0164C2.92678 11.0018 2.93571 10.9872 2.9448 10.9734L5.87644 6.10425L6.05223 5.81128L5.0659 5.29761L1.68309 10.9138ZM21.4761 6.88647C21.8697 6.92453 22.2074 7.24153 22.2075 7.66577V7.66675C22.2073 8.09088 21.8696 8.40801 21.4761 8.44604L21.396 8.44995C20.9695 8.44979 20.5857 8.11917 20.5854 7.66675V7.66577C20.5855 7.21324 20.9694 6.88371 21.396 6.88354L21.4761 6.88647ZM7.43016 1.34937C7.78825 1.18191 8.2358 1.28754 8.46434 1.62769L9.68211 3.44116L9.72508 3.51343C9.90499 3.85463 9.79827 4.26552 9.49363 4.48999L9.42527 4.53491C9.0629 4.7492 8.5801 4.65869 8.3325 4.3103L8.33055 4.30737L8.32371 4.29761L8.32078 4.2937L7.10301 2.47925C6.85025 2.10215 6.98019 1.61128 7.35984 1.38647L7.43016 1.34937ZM15.6831 1.56323C15.9392 1.25411 16.3947 1.18254 16.7397 1.38647L16.8081 1.4314C17.1124 1.65578 17.2192 2.06587 17.0395 2.40698L16.9966 2.47925L15.7807 4.29272L15.7778 4.29663L15.772 4.30542L15.769 4.30933C15.5525 4.61446 15.1555 4.72272 14.8169 4.60132L14.6762 4.53491C14.3024 4.31392 14.1699 3.83447 14.4077 3.45874L14.4096 3.45581L14.4165 3.44604L14.4184 3.44214L14.7095 3.63647L14.4194 3.44214L15.6352 1.62866L15.6831 1.56323ZM12.1294 -0.0012207C12.5231 0.0368039 12.8608 0.352805 12.8608 0.7771V2.96265C12.8605 3.38672 12.5229 3.70298 12.1294 3.74097L12.0493 3.74487C11.6229 3.74463 11.2391 3.41492 11.2387 2.96265V0.7771C11.2388 0.32458 11.6228 -0.00488662 12.0493 -0.00512695L12.1294 -0.0012207Z" fill="#1A1A1A"/>
</svg>
