<svg width="97" height="96" viewBox="0 0 97 96" fill="none" xmlns="http://www.w3.org/2000/svg">
    <rect x="3.24609" y="48" width="64" height="64" rx="8" transform="rotate(-45 3.24609 48)" fill="#FFC700"/>
    <path d="M48.5029 64C47.3617 64 46.3632 63.5721 45.5073 62.7162C44.6515 61.8603 44.2235 60.8618 44.2235 59.7206C44.2235 58.5795 44.6515 57.581 45.5073 56.7251C46.3632 55.8692 47.3617 55.4413 48.5029 55.4413C49.644 55.4413 50.6425 55.8692 51.4984 56.7251C52.3543 57.581 52.7822 58.5795 52.7822 59.7206C52.7822 60.8618 52.3543 61.8603 51.4984 62.7162C50.6425 63.5721 49.644 64 48.5029 64ZM36.7109 53.0639L33.7153 50.0683C35.9343 47.8494 38.2562 46.1852 40.6812 45.0758C43.1061 43.9663 45.7134 43.4116 48.5029 43.4116C51.2924 43.4116 53.8996 43.9663 56.3246 45.0758C58.7495 46.1852 61.0715 47.8494 63.2904 50.0683L60.2948 53.0639C58.3612 51.1303 56.4117 49.7514 54.4464 48.9272C52.4811 48.103 50.4999 47.6909 48.5029 47.6909C46.5058 47.6909 44.5247 48.103 42.5593 48.9272C40.594 49.7514 38.6445 51.1303 36.7109 53.0639ZM28.6752 45.0282L25.6797 42.0327C28.6277 39.0213 32.0591 36.5963 35.9739 34.7578C39.8887 32.9193 44.065 32 48.5029 32C52.9407 32 57.117 32.9193 61.0318 34.7578C64.9466 36.5963 68.378 39.0213 71.326 42.0327L68.3305 45.0282C65.541 42.3655 62.49 40.2417 59.1775 38.6568C55.8649 37.0718 52.3067 36.2793 48.5029 36.2793C44.699 36.2793 41.1408 37.0718 37.8283 38.6568C34.5157 40.2417 31.4647 42.3655 28.6752 45.0282Z" fill="#1A1A1A"/>
</svg>