<svg width="24" height="24" viewBox="0 0 24 24" fill="none" xmlns="http://www.w3.org/2000/svg">
<g clip-path="url(#clip0_4897_14744)">
<path d="M18.1399 16.2421C16.2904 16.2421 14.8027 17.7467 14.8027 19.6162C14.8027 21.4857 16.2909 22.9881 18.1399 22.9881C19.9889 22.9881 21.481 21.4818 21.481 19.6162C21.481 17.7506 19.9895 16.2421 18.1399 16.2421ZM18.1399 21.0707C17.3432 21.0707 16.6996 20.4185 16.6996 19.6162C16.6996 18.8138 17.3438 18.1594 18.1399 18.1594C18.9361 18.1594 19.5825 18.8116 19.5825 19.6162C19.5825 20.4208 18.935 21.0707 18.1399 21.0707Z" fill="#1A1A1A"/>
<path d="M21.4811 0.464704L17.5697 7.2633L9.70868 20.9258C9.67534 20.9892 9.6385 21.0492 9.60165 21.1091C8.91972 22.2363 7.69212 22.9881 6.29491 22.9881C5.53577 22.9881 4.82752 22.7673 4.22863 22.3841L8.14011 15.5819L9.62037 13.0112L6.31362 7.2633L2.40039 0.461145C2.99752 0.0814342 3.70695 -0.141052 4.46491 -0.141052C5.87323 -0.141052 7.1061 0.618368 7.78628 1.75513L11.9411 8.97793L16.0017 1.92125C16.0368 1.85955 16.0701 1.79962 16.1046 1.7397C16.7883 0.612436 18.0141 -0.141052 19.4166 -0.141052C20.174 -0.141052 20.8817 0.0814343 21.4811 0.464704Z" fill="#1A1A1A"/>
</g>
<defs>
<clipPath id="clip0_4897_14744">
<rect width="24" height="24" fill="white"/>
</clipPath>
</defs>
</svg>
