<svg width="33" height="32" viewBox="0 0 33 32" fill="none" xmlns="http://www.w3.org/2000/svg">
<g clip-path="url(#clip0_4068_10247)">
<path d="M16.3789 32.0036C25.2155 32.0036 32.3789 24.8402 32.3789 16.0036C32.3789 7.16709 25.2155 0.00364876 16.3789 0.00364876C7.54235 0.00364876 0.378906 7.16709 0.378906 16.0036C0.378906 24.8402 7.54235 32.0036 16.3789 32.0036Z" fill="#1A1A1A"/>
<path d="M26.5986 10.8693C26.3545 9.95196 25.6315 9.229 24.7118 8.98248C23.0478 8.53685 16.3776 8.53685 16.3776 8.53685C16.3776 8.53685 9.70738 8.53685 8.04338 8.98248C7.12605 9.229 6.40309 9.94959 6.15657 10.8693C5.71094 12.5333 5.71094 16.0035 5.71094 16.0035C5.71094 16.0035 5.71094 19.4737 6.15657 21.1377C6.40071 22.0551 7.12368 22.778 8.04338 23.0246C9.70738 23.4702 16.3776 23.4702 16.3776 23.4702C16.3776 23.4702 23.0478 23.4702 24.7118 23.0246C25.6292 22.778 26.3521 22.0574 26.5986 21.1377C27.0443 19.4737 27.0443 16.0035 27.0443 16.0035C27.0443 16.0035 27.0443 12.5333 26.5986 10.8693ZM14.2443 19.2035V12.8035L19.7862 16.0035L14.2443 19.2035Z" fill="#FAFAFA"/>
</g>
<defs>
<clipPath id="clip0_4068_10247">
<rect width="32" height="32" fill="white" transform="translate(0.378906 0.00364876)"/>
</clipPath>
</defs>
</svg>
